<?xml version="1.0" encoding="iso-8859-1"?>
<!-- Generator: Adobe Illustrator 19.0.0, SVG Export Plug-In . SVG Version: 6.00 Build 0)  -->
<svg version="1.1" id="Capa_1" xmlns="http://www.w3.org/2000/svg" xmlns:xlink="http://www.w3.org/1999/xlink" x="0px" y="0px"
	 viewBox="0 0 511.876 511.876" style="enable-background:new 0 0 511.876 511.876;" xml:space="preserve">
<g>
	<g>
		<path style="fill:#FF5722;" d="M498.164,306.918L205.044,13.712c-2.94-3.028-6.885-4.879-11.093-5.205
			c-5.348-0.547-10.656,1.368-14.421,5.205L32.927,160.315L13.812,179.43c-3.399,3.358-5.312,7.937-5.312,12.715
			s1.913,9.357,5.312,12.715l293.12,293.205c3.375,3.4,7.967,5.312,12.757,5.312c4.79,0,9.382-1.912,12.757-5.312l19.115-19.115
			l146.603-146.603c3.837-3.766,5.753-9.073,5.205-14.421C503.025,313.747,501.175,309.836,498.164,306.918z"/>
		<path style="fill:#CFD8DC;" d="M364.447,287.462l-0.085,0.256l-9.728,145.493l-3.072,45.739l-19.115,19.115
			c-3.375,3.4-7.967,5.312-12.757,5.312c-4.79,0-9.382-1.912-12.757-5.312l-19.968-20.053L13.812,204.859
			c-3.399-3.358-5.312-7.937-5.312-12.715s1.913-9.357,5.312-12.715l19.115-19.115l191.232-12.8l0.256-0.085l22.699,103.595
			c1.552,6.843,6.896,12.186,13.739,13.739L364.447,287.462z"/>
		<path style="fill:#FEC108;" d="M503.37,317.926l-138.923-30.464l-103.595-22.699c-6.843-1.552-12.186-6.896-13.739-13.739
			L224.415,147.43L193.951,8.507c4.208,0.326,8.153,2.177,11.093,5.205l293.12,293.205
			C501.175,309.836,503.025,313.747,503.37,317.926z"/>
		<path style="fill:#D84315;" d="M503.37,317.926c0.547,5.348-1.368,10.656-5.205,14.421L351.562,478.95l3.072-45.739
			l122.197-122.197c3.837-3.766,5.753-9.073,5.205-14.421c-0.345-4.179-2.195-8.09-5.205-11.008l21.333,21.333
			C501.175,309.836,503.025,313.747,503.37,317.926z"/>
		<path style="fill:#607D8B;" d="M354.634,433.211l-3.072,45.739l-19.115,19.115c-3.375,3.4-7.967,5.312-12.757,5.312
			c-4.79,0-9.382-1.912-12.757-5.312l-19.968-20.053c7.175,5.865,17.634,5.31,24.149-1.28l19.115-19.115L354.634,433.211z"/>
	</g>
	<path d="M511.639,316.112c-0.72-5.771-3.333-11.141-7.43-15.269L211.034,7.668c-4.121-4.094-9.483-6.707-15.247-7.431
		c-0.294-0.044-0.59-0.072-0.886-0.085c-7.909-0.852-15.781,1.91-21.425,7.516L7.767,173.376c-10.354,10.379-10.354,27.18,0,37.558
		l293.175,293.175c10.378,10.356,27.18,10.356,37.558,0L504.21,338.4c5.61-5.651,8.37-13.532,7.51-21.448
		C511.708,316.671,511.681,316.39,511.639,316.112z M484.204,304.971l-221.486-48.57c-3.615-0.803-6.439-3.626-7.242-7.242
		l-48.57-221.486L484.204,304.971z M185.543,19.734c0.573-0.492,1.204-0.911,1.881-1.247l26.573,121.18L55.011,150.265
		L185.543,19.734z M326.434,492.043c-3.71,3.7-9.715,3.7-13.425,0L19.834,198.868c-3.7-3.71-3.7-9.715,0-13.425l16.855-16.855
		l181.003-12.066l21.117,96.296c2.238,10.113,10.137,18.011,20.25,20.25l96.296,21.117l-12.066,181.003L326.434,492.043z
		 M361.611,456.865L372.21,297.88l121.18,26.574c-0.336,0.676-0.755,1.308-1.247,1.881L361.611,456.865z"/>
</g>
<g>
</g>
<g>
</g>
<g>
</g>
<g>
</g>
<g>
</g>
<g>
</g>
<g>
</g>
<g>
</g>
<g>
</g>
<g>
</g>
<g>
</g>
<g>
</g>
<g>
</g>
<g>
</g>
<g>
</g>
</svg>
